<svg width="84" height="84" viewBox="0 0 84 84" fill="none" xmlns="http://www.w3.org/2000/svg">
<circle cx="42" cy="42" r="42" fill="white"/>
<path d="M5.80319 39.3929H10.9043V35.8577H11.9957V44.0432H10.9043V40.4368H5.80319V44.0432H4.71179V35.8577H5.80319V39.3929ZM14.0288 35.8577L16.9945 40.1877L19.9129 35.8577H21.1941L17.5165 41.2672V44.0432H16.4251V41.2554L12.712 35.8577H14.0288ZM28.9744 38.7167C28.9744 40.8402 28.0491 41.7892 26.1154 41.7892H22.9954V44.0432H21.904V35.8577H26.0917C28.1203 35.8577 28.9744 36.6525 28.9744 38.7167ZM22.9954 36.9016V40.7453H26.1154C27.2661 40.7453 27.8593 40.2233 27.8593 38.7167C27.8593 37.2812 27.4203 36.9016 26.0917 36.9016H22.9954ZM36.3581 44.0432H30.1062V35.8577H36.3462V36.9016H31.1976V39.3929H36.2276V40.4368H31.1976V42.9993H36.3581V44.0432ZM43.1418 44.0432L39.1321 40.2707H41.6945C42.8808 40.2707 43.4977 39.9149 43.4977 38.4913C43.4977 37.1982 43.0588 36.9016 41.6708 36.9016H38.6932V44.0432H37.6018V35.8577H41.6708C43.7587 35.8577 44.6128 36.5932 44.6128 38.4913C44.6128 40.3063 43.735 41.1605 41.9318 41.1249H41.4573L44.684 44.0432H43.1418ZM46.5378 35.8577L52.3863 42.1333V35.8577H53.454V44.0432H52.7422L46.9412 37.7795V44.0432H45.8735V35.8577H46.5378ZM58.9678 44.2212C56.2037 44.2212 54.7564 43.2721 54.7564 39.9623C54.7564 36.5101 56.3461 35.6797 58.9678 35.6797C61.6014 35.6797 63.1792 36.5101 63.1792 39.9623C63.1792 43.2721 61.7319 44.2212 58.9678 44.2212ZM58.9678 43.1772C60.9252 43.1772 62.0641 42.7264 62.0641 39.9623C62.0641 37.1152 60.9252 36.7237 58.9678 36.7237C57.0104 36.7237 55.8716 37.0796 55.8716 39.9623C55.8716 42.7264 57.0104 43.1772 58.9678 43.1772ZM68.1978 44.0432H67.4623L63.5356 35.8577H64.8049L67.8538 42.4536L70.8551 35.8577H72.077L68.1978 44.0432ZM74.6439 35.8577H75.415L79.2586 44.0432H78.0249L77.3131 42.4654H72.6865L71.9628 44.0432H70.7647L74.6439 35.8577ZM73.161 41.4571H76.8623L75.0354 37.3999L73.161 41.4571Z" fill="#000814"/>
<path d="M32.312 47H32.1164V45.4842H32.312V47ZM34.5118 45.6665H34.1339V47H33.9384V45.6665H33.5627V45.4842H34.5118V45.6665ZM38.1958 46.4749C38.1782 46.9253 38.0135 47.0264 37.7081 47.0264C37.3566 47.0264 37.1962 46.8946 37.1962 46.2443C37.1962 45.572 37.3698 45.4578 37.7081 45.4578C38.0025 45.4578 38.176 45.5435 38.1936 45.9894H37.9915C37.9739 45.6929 37.8817 45.6467 37.7081 45.6467C37.4884 45.6467 37.3961 45.7126 37.3961 46.2443C37.3961 46.754 37.4884 46.8374 37.7081 46.8374C37.8817 46.8374 37.9761 46.7825 37.9937 46.4749H38.1958ZM39.9998 47.0264C39.6307 47.0264 39.4703 46.8946 39.4703 46.2443C39.4703 45.572 39.6483 45.4578 39.9998 45.4578C40.3513 45.4578 40.5292 45.572 40.5292 46.2443C40.5292 46.8946 40.3689 47.0264 39.9998 47.0264ZM39.9998 46.8374C40.2305 46.8374 40.3293 46.754 40.3293 46.2443C40.3293 45.7148 40.2305 45.6467 39.9998 45.6467C39.7647 45.6467 39.6702 45.7126 39.6702 46.2443C39.6702 46.754 39.7647 46.8374 39.9998 46.8374ZM42.0326 45.9191V47H41.8414V45.4842H41.9667L42.3907 46.1718L42.8081 45.4842H42.9333V47H42.74V45.9257L42.3863 46.4684L42.0326 45.9191ZM45.1665 46.007C45.1665 46.3871 45.0303 46.5452 44.7316 46.5452H44.457V47H44.2614V45.4842H44.7294C45.0369 45.4842 45.1665 45.6292 45.1665 46.007ZM44.457 45.6665V46.3629H44.7316C44.8985 46.3629 44.9666 46.2882 44.9666 46.007C44.9666 45.7302 44.9073 45.6665 44.7294 45.6665H44.457ZM46.7119 45.4842H46.8416L47.3161 47H47.114L47.0349 46.7342H46.512L46.4329 47H46.2308L46.7119 45.4842ZM46.5647 46.5628H46.9843L46.7756 45.862L46.5647 46.5628ZM48.673 45.4842L49.3101 46.5628V45.4842H49.4946V47H49.3694L48.7367 45.9477V47H48.5522V45.4842H48.673ZM50.9471 45.4842L51.2789 46.3651L51.6062 45.4842H51.8171L51.3755 46.6046V47H51.1734V46.6046L50.7318 45.4842H50.9471Z" fill="#000814"/>
<path d="M22.2207 34.7639H26.7198C34.1889 25.9852 44.1598 22.2003 51.5357 25.1855C53.1205 25.827 55.4675 27.138 57.7045 30.0363C55.4997 26.4369 52.9955 24.7848 51.3248 23.9729C49.3436 23.01 47.1205 22.5409 44.7562 22.541C37.5959 22.5411 29.1437 26.8441 22.2207 34.7639Z" fill="url(#paint0_linear_269_14404)"/>
<path d="M20.541 45.729C20.5463 46.8484 20.6825 52.8647 25.4102 56.9844C28.1154 59.3417 31.023 59.9445 32.2301 60.1793C38.3869 61.3767 43.3278 58.4628 44.6985 57.5884C38.8372 60.2701 32.258 59.3259 28.2543 55.3401C24.6296 51.7317 24.4514 46.96 24.4427 45.729H20.541Z" fill="url(#paint1_linear_269_14404)"/>
<path d="M58.5636 45.7286C56.7586 48.8252 53.381 53.4873 47.5893 56.8612C44.6771 58.5576 36.0333 63.593 28.1562 59.8845C25.0242 58.41 23.0576 56.0448 21.9375 54.3756C22.9622 56.2819 24.9225 59.2215 28.3781 61.1606C36.6032 65.776 46.3282 60.8119 49.4939 59.1959C57.2019 55.2613 61.2923 49.0171 63.0979 45.7286H58.5636Z" fill="url(#paint2_linear_269_14404)"/>
<path d="M45.5185 20.1489C36.3967 21.0716 29.2882 27.5956 29.3738 27.7321C29.4201 27.806 34.5973 22.7903 42.6603 21.8972C45.7268 21.5574 51.0364 21.075 55.3142 24.7092C59.4808 28.2489 59.9763 33.4399 60.0639 34.7621C61.4901 34.7762 62.9162 34.7902 64.3424 34.8043C64.1235 33.5144 62.6427 25.5488 55.6997 21.8199C52.9345 20.3348 50.1931 20 48.0978 20C47.0508 20 46.1653 20.0836 45.5185 20.1489Z" fill="url(#paint3_linear_269_14404)"/>
<defs>
<linearGradient id="paint0_linear_269_14404" x1="22.2207" y1="28.6524" x2="57.7045" y2="28.6524" gradientUnits="userSpaceOnUse">
<stop stop-color="#9155A0"/>
<stop offset="0.0318333" stop-color="#9155A0"/>
<stop offset="1" stop-color="#55316F"/>
</linearGradient>
<linearGradient id="paint1_linear_269_14404" x1="44.6984" y1="53.0964" x2="20.5411" y2="53.0964" gradientUnits="userSpaceOnUse">
<stop stop-color="#9155A0"/>
<stop offset="0.0318333" stop-color="#9155A0"/>
<stop offset="1" stop-color="#55316F"/>
</linearGradient>
<linearGradient id="paint2_linear_269_14404" x1="63.0979" y1="54.4029" x2="21.9375" y2="54.4029" gradientUnits="userSpaceOnUse">
<stop stop-color="#894F9A"/>
<stop offset="0.0318333" stop-color="#894F9A"/>
<stop offset="1" stop-color="#683D8F"/>
</linearGradient>
<linearGradient id="paint3_linear_269_14404" x1="29.373" y1="27.4022" x2="64.3424" y2="27.4022" gradientUnits="userSpaceOnUse">
<stop stop-color="#9155A0"/>
<stop offset="0.0318333" stop-color="#9155A0"/>
<stop offset="1" stop-color="#55316F"/>
</linearGradient>
</defs>
</svg>
